<svg xmlns="http://www.w3.org/2000/svg" width="120.75" height="42.687" viewBox="0 0 31.948 11.294"><g style="line-height:0%;-inkscape-font-specification:'Commando Bold'"><path d="M8.98 0H4.877v4.705H4.1V0H0v11.294h4.101V5.821h.777v5.473H8.98zm-.307.29v.677H5.184V.29zm0 .81v.471H5.184V1.1zm0 .612v.355H5.184v-.355zm0 .487v.273H5.184V2.2zm0 .405v.207H5.184v-.207zm0 .34v.173H5.184v-.174zm0 .305v.141H5.184v-.14zm0 1.05v.141H5.184V4.3zm0 .273v.133H5.184v-.133zm0 .29v.215H.306v-.215h3.49v.115h1.388v-.115zm0 .355v.29H.306v-.29zm0 .422v.355H5.184V5.64zm0 .488v.446H5.184v-.446zm0 .579v.562H5.184v-.562zm0 .694v.579H5.184V7.4zm0 .711v.728H5.184V8.11zm0 .86v.786H5.184V8.97zm0 .918v1.116H5.184V9.889zM3.795.289v.678H.305V.29zm0 .81v.472H.305V1.1zm0 .613v.355H.305v-.355zm0 .487v.273H.305V2.2zm0 .405v.207H.305v-.207zm0 .34v.173H.305v-.174zm0 .305v.141H.305v-.14zm0 1.05v.141H.305V4.3zm0 .273v.15H.305v-.15zm0 1.067v.355H.305V5.64zm0 .488v.446H.305v-.446zm0 .579v.562H.305v-.562zm0 .694v.579H.305V7.4zm0 .711v.728H.305V8.11zm0 .86v.786H.305V8.97zm0 .918v1.116H.305V9.889zm7.565-6.284l-1.992 7.69h3.977zm.034.711l.041.124h-.124l.016-.124zm.057.256l.034.15h-.224l.033-.15zm.05.29l.033.215h-.322l.033-.215zm.066.355l.05.29h-.488l.05-.29zm.066.422l.083.355h-.711l.091-.355zm.116.488l.108.446h-.968l.1-.446zm.14.579l.116.562h-1.281l.149-.562zm.15.694l.14.579h-1.645l.149-.579zm.173.711l.182.728H10.31l.19-.728zm.215.86l.207.786h-2.555l.198-.786zm.24.918l.29 1.116H9.74l.306-1.116zM15.172 0h-2.844l-.562 2.067 2.406 9.227h3.944zm-.24.29l.19.677h-2.744L12.55.29zm.224.81l.115.471H12.23l.115-.471zm.157.612l.099.355h-3.324l.091-.355zm.132.487l.066.273H12.18l-.074-.273zm.1.405l.049.207h-3.316l-.066-.207zm.082.34l.058.173h-3.34l-.034-.174zm.09.305l.034.141h-3.34l-.033-.14zm.265 1.05l.042.141h-3.34l-.017-.14zm.075.273l.05.15h-3.34l-.034-.15zm.083.29l.05.215h-3.333l-.058-.215zm.082.355l.083.29h-3.332l-.083-.29zm.116.422l.091.355h-3.324l-.1-.355zm.124.488l.116.446h-3.316l-.124-.446zm.149.579l.157.562h-3.34l-.133-.562zm.19.694l.149.579h-3.332L13.46 7.4zm.182.711l.19.728h-3.34l-.182-.728zm.223.86l.199.786h-3.332l-.207-.786zm.24.918l.298 1.116h-3.332l-.29-1.116zM20.017 0H17.09l-.595 2.067L19 11.294h4.06zm-.24.29l.19.677H17.14l.165-.678zm.224.81l.132.471h-3.167l.141-.471zm.165.612l.108.355h-3.44l.1-.355zm.14.487l.067.273h-3.456L16.85 2.2zm.1.405l.05.207h-3.44l-.05-.207zm.1.34l.032.173h-3.431l-.058-.174zm.082.305l.041.141h-3.456l-.033-.14zm.273 1.05l.033.141h-3.432l-.033-.14zm.066.273l.058.15h-3.456l-.033-.15zm.09.29l.067.215h-3.456l-.05-.215zm.1.355l.066.29h-3.44l-.082-.29zm.116.422l.09.355h-3.439l-.099-.355zm.124.488l.116.446h-3.44l-.116-.446zm.165.579l.157.562h-3.456l-.157-.562zm.19.694l.15.579h-3.457l-.149-.579zm.182.711l.207.728h-3.456l-.19-.728zm.24.86l.198.786h-3.43l-.224-.786zm.24.918l.297 1.116h-3.43l-.307-1.116zM31.948 0h-3.877l3.877 4.506zm-.28.29v.677H29.26L28.682.29zm0 .81v.471h-1.886l-.405-.471zm0 .612v.355h-1.44l-.305-.355zm0 .487v.273h-1.1l-.224-.273zm0 .405v.207h-.803l-.182-.207zm0 .34v.173h-.546l-.133-.174zm0 .305v.141h-.307l-.14-.14zm-1.142-.132L27.823 5.49l2.703 2.282zm-.28 1.182v.141h-.82l.158-.14zm0 .273v.15h-1.158l.19-.15zm0 .29v.215h-1.547l.256-.215zm0 .355v.29h-1.969l.29-.29zm0 .422v.355h-1.373l-.439-.355zm0 .488v.446h-.712l-.513-.446zm0 .579v.454l-.547-.454zM27.582 0h-4.118v11.294h4.118zm-.29.29v.677h-3.538V.29zm0 .81v.471h-3.538V1.1zm0 .612v.355h-3.538v-.355zm0 .487v.273h-3.538V2.2zm0 .405v.207h-3.538v-.207zm0 .34v.173h-3.538v-.174zm0 .305v.141h-3.538v-.14zm0 1.05v.141h-3.538V4.3zm0 .273v.15h-3.538v-.15zm0 .29v.215h-3.538v-.215zm0 .355v.29h-3.538v-.29zm0 .422v.355h-3.538V5.64zm0 .488v.446h-3.538v-.446zm0 .579v.562h-3.538v-.562zm0 .694v.579h-3.538V7.4zm0 .711v.728h-3.538V8.11zm0 .86v.786h-3.538V8.97zm0 .918v1.116h-3.538V9.889z" style="-inkscape-font-specification:'Futura Black Art Deco Horizont Bold'" aria-label="HMF" font-weight="700" font-size="64" font-family="Futura Black Art Deco Horizont" letter-spacing="0" word-spacing="0"/></g><path d="M.308 10.447v-.55h3.484v1.1H.308zM.308 9.365v-.391h3.484v.783H.308zM.308 8.477V8.12h3.484v.713H.308zM.308 7.687v-.28h3.484v.561H.308zM.308 6.992v-.275h3.484v.55H.308zM.308 6.349v-.217h3.484v.433H.308zM.308 5.817V5.64h3.484v.351H.308zM.308 5.36v-.14h8.36v.28H.308zM5.184 5.817V5.64h3.484v.351H5.184zM5.184 6.349v-.217h3.484v.433H5.184zM5.184 6.992v-.275h3.484v.55H5.184zM5.184 7.687v-.28h3.484v.561H5.184zM5.184 8.477V8.12h3.484v.713H5.184zM5.184 9.365v-.391h3.484v.783H5.184zM5.184 10.447v-.55h3.484v1.1H5.184zM.308 4.969v-.1h3.484V4.986h1.392V4.87h3.484v.2H.308zM5.184 4.636v-.059h3.484V4.694H5.184zM5.184 4.373v-.065h3.484v.129H5.184zM.308 4.373v-.065h3.484v.129H.308zM.308 4.647v-.07h3.484v.14H.308zM.306.627V.292h3.489v.67H.306zM.306 1.334v-.232h3.489v.463H.306zM.306 1.888v-.174h3.489v.348H.306zM.306 2.334v-.132h3.489v.265H.306zM.306 2.706v-.099h3.489v.199H.306zM.306 3.029v-.083h3.489v.166H.306zM.306 3.318v-.066h3.489v.132H.306zM5.184 3.318v-.066h3.481v.132h-3.48zM5.184 3.029v-.083h3.481v.166h-3.48zM5.184 2.706v-.099h3.481v.199h-3.48zM5.184 2.334v-.132h3.481v.265h-3.48zM5.184 1.888v-.174h3.481v.348h-3.48zM5.184 1.334v-.232h3.481v.463h-3.48zM5.184.627V.292h3.481v.67h-3.48zM12.386.957l.084-.335.084-.33h2.375l.09.32.093.335c.004.014-.065.015-1.361.015-.75 0-1.365-.003-1.365-.005zM12.24 1.547l.056-.232.052-.213h2.804l.052.213.057.232.004.018h-3.03zM12.096 2.057l.043-.174.043-.169h3.128l.047.169.047.173c0 .003-.744.006-1.654.006-.91 0-1.654-.003-1.654-.005zM12.15 2.349a37.35 37.35 0 00-.035-.132c-.004-.014.08-.015 1.661-.015h1.666l.03.127c.017.07.03.129.03.132 0 .003-.746.006-1.66.006h-1.66zM12.25 2.712a1.87 1.87 0 01-.03-.1c0-.002.748-.005 1.661-.005h1.66l.023.093.022.1c0 .003-.744.006-1.653.006h-1.652zM12.334 3.039a1.192 1.192 0 01-.014-.083c0-.007.4-.01 1.652-.01h1.652l.023.073.027.082c.004.009-.332.01-1.661.01h-1.665zM12.4 3.325a.89.89 0 01-.014-.067c0-.003.749-.006 1.664-.006h1.665l.014.06a.89.89 0 01.014.066c0 .004-.75.006-1.665.006h-1.664zM12.683 4.393a1.323 1.323 0 00-.01-.066l-.004-.023 1.655.002 1.656.002.02.062.018.064c0 .001-.749.002-1.665.002h-1.665zM12.757 4.657a2.237 2.237 0 00-.017-.07c-.003-.008.33-.01 1.655-.008l1.66.002.022.068.023.068H12.771zM12.849 5.03l-.029-.104-.016-.06 1.667.002 1.667.002.023.095.023.102c0 .003-.748.006-1.662.006h-1.661zM12.96 5.447l-.04-.14-.025-.085 1.663.002 1.662.002.04.136.04.139s-.748.002-1.662.002h-1.661zM13.101 5.964a9.859 9.859 0 01-.088-.31c-.003-.009.33-.01 1.66-.009l1.663.002.038.15.044.17.006.024h-3.315zM13.253 6.526a64.216 64.216 0 01-.108-.385c-.003-.008.33-.01 1.656-.008l1.659.002.05.195c.029.106.054.204.057.217l.006.022h-3.307zM13.427 7.245l-.066-.275-.06-.256 1.65-.002c.907-.001 1.652 0 1.655.004.004.003.039.123.078.267.04.143.074.265.077.27.003.009-.333.01-1.663.01H13.43zM13.618 7.96a48.034 48.034 0 01-.15-.545c-.003-.009.33-.01 1.663-.009l1.668.003.067.26.073.283.006.023h-1.662c-1.575 0-1.661 0-1.665-.015zM13.828 8.804a93.498 93.498 0 01-.09-.36l-.082-.329 1.663.003 1.662.002.089.339.093.357.005.019h-3.332zM14.072 9.738a73.262 73.262 0 01-.1-.378l-.099-.374c-.003-.009.33-.01 1.664-.009l1.667.002.092.364.098.387.006.023h-1.662c-1.575 0-1.662-.001-1.666-.015zM14.407 10.97a557.767 557.767 0 01-.278-1.067c-.003-.008.33-.01 1.656-.008l1.659.002.143.534.147.551.005.019h-3.324zM9.756 10.962a104.23 104.23 0 00.281-1.026l.012-.043 1.308.002 1.308.002.137.53.144.551.005.023H9.744zM10.174 9.395l.099-.389.008-.03 1.072.001 1.072.002.097.368.102.387.005.019h-2.546zM10.318 8.824l.082-.316.092-.35.012-.043.853.002.853.003.084.334.09.358.005.023h-1.037c-.827 0-1.037-.002-1.034-.01zM10.541 7.965l.066-.255.071-.275.008-.03.676.001.675.003.064.264.069.283.004.019h-.818c-.651 0-.818-.002-.815-.01zM10.731 7.254l.07-.263.072-.267c.004-.013.035-.014.507-.014s.504 0 .508.014l.054.259.054.262.005.019h-.637c-.506 0-.636-.002-.633-.01zM10.901 6.538a207.733 207.733 0 00.084-.372l.009-.035.376.002.377.002.047.195c.026.106.05.204.052.217l.005.022h-.957zM11.046 5.848l.046-.174.008-.03.265.001.266.002.036.153.04.172.004.019h-.702zM11.136 5.484l.046-.26c0-.001.085-.002.19-.002.173 0 .19 0 .193.014.003.008.012.061.022.118l.021.126.005.023h-.481zM11.219 5.054c.004-.019.029-.176.029-.184 0-.002.056-.004.124-.004.121 0 .124 0 .128.019.004.018.029.176.029.184 0 .002-.07.004-.157.004h-.158zM11.278 4.666l.016-.071c.004-.018.007-.019.08-.017l.075.003.015.062.015.068a.462.462 0 01-.106.006h-.107zM11.317 4.413l.01-.057c.005-.034.006-.036.035-.036h.03l.018.058.018.058h-.115zM17.147.953l.075-.304.079-.324.008-.031 1.233.002 1.233.002.093.33.094.333c0 .002-.634.003-1.409.003-1.124 0-1.409-.003-1.406-.01zM16.978 1.544l.045-.15.063-.21.025-.08 1.444.002 1.444.002.064.228.065.229c0 .001-.71.002-1.579.002H16.97zM16.841 2.053a9.465 9.465 0 00.092-.323c.004-.013.087-.014 1.618-.012l1.613.002.052.17.052.171c0 .001-.772.002-1.715.002-1.369 0-1.715-.002-1.712-.01zM16.912 2.437a7.59 7.59 0 01-.032-.132l-.024-.101 1.725.002 1.724.002.026.107.031.13.006.023H16.92zM17.012 2.776a5.413 5.413 0 01-.024-.099l-.016-.068 1.716.002 1.716.002.017.07.024.098.005.026h-3.43zM17.086 3.037a1.086 1.086 0 01-.026-.083c0-.003.775-.005 1.722-.004l1.722.002.014.074.014.081c0 .003-.769.006-1.71.006h-1.71zM17.17 3.355a6.77 6.77 0 01-.017-.066l-.008-.035 1.72.002 1.721.002.015.05.02.064c.004.013-.082.014-1.72.014h-1.724zM17.458 4.405a1.997 1.997 0 01-.016-.066l-.008-.035 1.712.002 1.712.002.01.037.015.064.005.027H17.466zM18.394 4.72c.477-.002 1.255-.002 1.728 0 .474 0 .084.001-.866.001s-1.338 0-.862-.002z" fill="#ffdf00"/><path d="M18.538 4.72c.115-.002.303-.002.418 0 .115 0 .02.002-.209.002-.23 0-.324-.001-.209-.003z" fill="#ffdf00"/><path d="M18.873 4.72a.608.608 0 01.079 0c.021.001.004.003-.04.003-.043 0-.06-.002-.039-.004zM17.528 4.699l-.016-.07-.011-.052h3.426l.009.027c.004.014.016.046.026.07l.017.043h-3.447zM17.627 5.054l-.024-.101-.02-.083 1.712-.002c.942-.001 1.715 0 1.718.004a.747.747 0 01.032.091l.03.097c.005.011-.174.013-1.72.013h-1.724zM17.746 5.5l-.04-.14-.04-.138 1.725.002 1.724.002.027.12.032.138.004.019h-1.716c-.943 0-1.716-.001-1.716-.002zM17.88 5.964a9.37 9.37 0 01-.042-.151 7.498 7.498 0 00-.042-.147l-.007-.023 1.72.002 1.721.002.039.15a38 38 0 01.044.17l.006.024h-3.431zM18.032 6.55l-.057-.216-.052-.199 1.712-.002c.941-.001 1.714 0 1.717.004.003.004.029.096.057.205l.055.213c.004.014-.081.014-1.712.014h-1.716zM18.214 7.22a56.608 56.608 0 01-.077-.274l-.065-.232 1.72-.002c.946-.001 1.722 0 1.726.004.003.003.038.123.078.267l.076.27c.003.009-.34.01-1.72.01h-1.725zM18.405 7.96a34.628 34.628 0 01-.071-.274 23.546 23.546 0 00-.07-.271c-.004-.009.342-.01 1.72-.009l1.726.003.067.26.074.283.005.023h-1.723c-1.635 0-1.724 0-1.728-.015zM18.643 8.816l-.093-.357-.089-.34 1.712-.001c.94-.002 1.714 0 1.717.004.003.003.05.16.102.348l.101.354c.004.009-.298.01-1.72.01h-1.725zM18.896 9.722c-.004-.018-.054-.192-.11-.39l-.103-.357 1.724.002 1.724.002.093.364.098.387.005.023H18.905zM19.24 10.987a194.239 194.239 0 01-.29-1.055l-.012-.039 1.717.002 1.717.002.147.55.147.552c0 .001-.77.002-1.71.002-1.623 0-1.712 0-1.716-.014zM23.758 10.447v-.554h3.53v1.108h-3.53zM23.758 9.364v-.389h3.53v.778h-3.53zM23.758 8.475v-.36h3.53v.72h-3.53zM23.758 7.69v-.286h3.53v.571h-3.53zM23.758 6.987V6.71h3.53v.554h-3.53zM23.758 6.35v-.219h3.53v.438h-3.53zM23.758 5.817v-.174h3.53v.348h-3.53zM23.758 5.362v-.14h3.53v.28h-3.53zM23.758 4.97v-.104h3.53v.207h-3.53zM23.761 4.647v-.074H27.292v.149H23.76zM23.761 4.366V4.3H27.292v.132H23.76zM23.761 3.316V3.25H27.292v.132H23.76zM25.313 2.938h.98c.27.001.05.002-.49.002-.539 0-.759 0-.49-.002zM23.761 3.027v-.083H27.292v.165H23.76zM23.761 2.704v-.099H27.292v.199H23.76zM23.761 2.332V2.2H27.292v.265H23.76zM23.761 1.886v-.174H27.292v.347H23.76zM23.761 1.332V1.1H27.292v.463H23.76zM23.761.625V.29H27.292v.67H23.76zM29.113.788a169.503 169.503 0 01-.406-.475L28.686.29h2.98v.67H29.26zM29.582 1.332l-.2-.232h2.283v.463h-1.883zM30.078 1.886l-.15-.174h1.737v.347h-1.438zM30.495 2.376c-.04-.05-.09-.109-.11-.133L30.35 2.2h1.316v.265h-1.097zM30.777 2.704l-.088-.099h.976v.199h-.8zM31.263 3.112a9 9 0 01.273 0c.073 0 .01.002-.14.002-.15 0-.21-.001-.133-.002zM31.059 3.027l-.064-.083h.67v.165h-.543zM31.29 3.316l-.067-.066h.442v.132h-.31zM29.516 4.366l.07-.065h.657v.131h-.798zM29.11 4.71l.093-.074.08-.063h.96v.149h-.572c-.484 0-.57-.002-.56-.012zM28.722 5.066c0-.001.054-.048.12-.103l.119-.1h1.282v.206h-.76c-.419 0-.761-.001-.761-.003zM28.424 5.363l.145-.145h1.674v.289H28.28zM28.665 5.822l-.21-.174c-.007-.006.244-.008.89-.008h.898v.347h-.688l-.688-.001-.202-.164zM29.297 6.362c-.128-.111-.24-.21-.248-.218-.016-.017-.013-.017.589-.017h.605v.439l-.357-.001h-.358l-.231-.203zM29.975 6.93l-.264-.22.263-.002c.145-.001.265 0 .267 0 .001.003.002.102 0 .222l-.002.219z" fill="#ffdf00"/></svg>