<svg xmlns="http://www.w3.org/2000/svg" width="120.75" height="42.687" viewBox="0 0 31.948 11.294"><g aria-label="HMF" style="line-height:0%;-inkscape-font-specification:'Commando Bold'" font-weight="700" font-size="64" font-family="Futura Black Art Deco Horizont" letter-spacing="0" word-spacing="0"><path d="M8.98 0H4.877v4.705h-.777V0H0v11.294h4.101V5.821h.777v5.473H8.98zm-.307.29v.677H5.184V.29zm0 .81v.471H5.184V1.1zm0 .612v.355H5.184v-.355zm0 .487v.273H5.184V2.2zm0 .405v.207H5.184v-.207zm0 .34v.173H5.184v-.174zm0 .305v.141H5.184v-.14zm0 1.05v.141H5.184V4.3zm0 .273v.133H5.184v-.133zm0 .29v.215H.306v-.215h3.49v.115h1.388v-.115zm0 .355v.29H.306v-.29zm0 .422v.355H5.184V5.64zm0 .488v.446H5.184v-.446zm0 .579v.562H5.184v-.562zm0 .694v.579H5.184V7.4zm0 .711v.728H5.184V8.11zm0 .86v.786H5.184V8.97zm0 .918v1.116H5.184V9.889zM3.795.289v.678H.305V.29zm0 .81v.472H.305V1.1zm0 .613v.355H.305v-.355zm0 .487v.273H.305V2.2zm0 .405v.207H.305v-.207zm0 .34v.173H.305v-.174zm0 .305v.141H.305v-.14zm0 1.05v.141H.305V4.3zm0 .273v.15H.305v-.15zm0 1.067v.355H.305V5.64zm0 .488v.446H.305v-.446zm0 .579v.562H.305v-.562zm0 .694v.579H.305V7.4zm0 .711v.728H.305V8.11zm0 .86v.786H.305V8.97zm0 .918v1.116H.305V9.889zM11.36 3.605l-1.992 7.69h3.977zm.034.711l.041.124h-.124l.016-.124zm.057.256l.034.15h-.224l.033-.15zm.05.29l.033.215h-.322l.033-.215zm.066.355l.05.29h-.488l.05-.29zm.066.422l.083.355h-.711l.091-.355zm.116.488l.108.446h-.968l.1-.446zm.14.579l.116.562h-1.281l.149-.562zm.15.694l.14.579h-1.645l.149-.579zm.173.711l.182.728H10.31l.19-.728zm.215.86l.207.786h-2.555l.198-.786zm.24.918l.29 1.116H9.74l.306-1.116zM15.172 0h-2.844l-.562 2.067 2.406 9.227h3.944zm-.24.29l.19.677h-2.744L12.55.29zm.224.81l.115.471H12.23l.115-.471zm.157.612l.099.355h-3.324l.091-.355zm.132.487l.066.273H12.18l-.074-.273zm.1.405l.049.207h-3.316l-.066-.207zm.082.34l.058.173h-3.34l-.034-.174zm.09.305l.034.141h-3.34l-.033-.14zm.265 1.05l.042.141h-3.34l-.017-.14zm.075.273l.05.15h-3.34l-.034-.15zm.083.29l.05.215h-3.333l-.058-.215zm.082.355l.083.29h-3.332l-.083-.29zm.116.422l.091.355h-3.324l-.1-.355zm.124.488l.116.446h-3.316l-.124-.446zm.149.579l.157.562h-3.34l-.133-.562zm.19.694l.149.579h-3.332L13.46 7.4zm.182.711l.19.728h-3.34l-.182-.728zm.223.86l.199.786h-3.332l-.207-.786zm.24.918l.298 1.116h-3.332l-.29-1.116zM20.017 0H17.09l-.595 2.067L19 11.294h4.06zm-.24.29l.19.677H17.14l.165-.678zm.224.81l.132.471h-3.167l.141-.471zm.165.612l.108.355h-3.44l.1-.355zm.14.487l.067.273h-3.456L16.85 2.2zm.1.405l.05.207h-3.44l-.05-.207zm.1.34l.032.173h-3.431l-.058-.174zm.082.305l.041.141h-3.456l-.033-.14zm.273 1.05l.033.141h-3.432l-.033-.14zm.066.273l.058.15h-3.456l-.033-.15zm.09.29l.067.215h-3.456l-.05-.215zm.1.355l.066.29h-3.44l-.082-.29zm.116.422l.09.355h-3.439l-.099-.355zm.124.488l.116.446h-3.44l-.116-.446zm.165.579l.157.562h-3.456l-.157-.562zm.19.694l.15.579h-3.457l-.149-.579zm.182.711l.207.728h-3.456l-.19-.728zm.24.86l.198.786h-3.43l-.224-.786zm.24.918l.297 1.116h-3.43l-.307-1.116zM31.948 0h-3.877l3.877 4.506zm-.28.29v.677H29.26L28.682.29zm0 .81v.471h-1.886l-.405-.471zm0 .612v.355h-1.44l-.305-.355zm0 .487v.273h-1.1l-.224-.273zm0 .405v.207h-.803l-.182-.207zm0 .34v.173h-.546l-.133-.174zm0 .305v.141h-.307l-.14-.14zm-1.142-.132L27.823 5.49l2.703 2.282zm-.28 1.182v.141h-.82l.158-.14zm0 .273v.15h-1.158l.19-.15zm0 .29v.215h-1.547l.256-.215zm0 .355v.29h-1.969l.29-.29zm0 .422v.355h-1.373l-.439-.355zm0 .488v.446h-.712l-.513-.446zm0 .579v.454l-.547-.454zM27.582 0h-4.118v11.294h4.118zm-.29.29v.677h-3.538V.29zm0 .81v.471h-3.538V1.1zm0 .612v.355h-3.538v-.355zm0 .487v.273h-3.538V2.2zm0 .405v.207h-3.538v-.207zm0 .34v.173h-3.538v-.174zm0 .305v.141h-3.538v-.14zm0 1.05v.141h-3.538V4.3zm0 .273v.15h-3.538v-.15zm0 .29v.215h-3.538v-.215zm0 .355v.29h-3.538v-.29zm0 .422v.355h-3.538V5.64zm0 .488v.446h-3.538v-.446zm0 .579v.562h-3.538v-.562zm0 .694v.579h-3.538V7.4zm0 .711v.728h-3.538V8.11zm0 .86v.786h-3.538V8.97zm0 .918v1.116h-3.538V9.889z" style="-inkscape-font-specification:'Futura Black Art Deco Horizont Bold'"/></g></svg>