<svg xmlns="http://www.w3.org/2000/svg" viewBox="0 0 94.456 33.883" height="128.062" width="357"><defs><path id="b" d="M20.47 41.371h135.549v109.873H20.47z"/><path id="a" d="M27.953 55.92H130.6v66.169H27.953z"/></defs><g font-weight="700" letter-spacing="0" word-spacing="0" stroke-width=".265"><g style="line-height:0%;-inkscape-font-specification:'Commando Bold';shape-inside:url(#b)" aria-label="TMF" font-size="50.8" font-family="Futura Black Art Deco Horizont" transform="translate(-20.818 -22.774)"><path style="-inkscape-font-specification:'Futura Black Art Deco Horizont Bold'" d="M20.818 22.774V37.36l7.838-14.586zm.918.869h5.482L26.1 25.677h-4.365zm0 2.43h4.167l-.769 1.414h-3.398zm0 1.836h3.2l-.596 1.067h-2.604zm0 1.463h2.381l-.397.819h-1.984zm0 1.216h1.786l-.348.62h-1.438zm0 1.017h1.215l-.248.52h-.967zm0 .918h.769l-.199.421h-.57zm27.682-9.749h-7.814l7.814 14.586zm-.918.869v2.034h-4.366l-1.116-2.034zm0 2.43v1.414h-3.398l-.744-1.414zm0 1.836v1.067h-2.58l-.62-1.067zm0 1.463v.819h-1.96l-.421-.819zm0 1.216v.62h-1.414l-.347-.62zm0 1.017v.52h-.943l-.272-.52zm0 .918v.421h-.546l-.198-.421zm-7.193-9.749H29.004v33.884h12.303zm-.869.869v2.034H29.872v-2.034zm0 2.43v1.414H29.872v-1.414zm0 1.836v1.067H29.872v-1.067zm0 1.463v.819H29.872v-.819zm0 1.216v.62H29.872v-.62zm0 1.017v.52H29.872v-.52zm0 .918v.421H29.872v-.421zm0 3.15v.422H29.872v-.422zm0 .818v.447H29.872v-.447zm0 .869v.644H29.872v-.644zm0 1.066v.868H29.872v-.868zm0 1.265v1.067H29.872V39.69zm0 1.464v1.34H29.872v-1.34zm0 1.736v1.687H29.872V42.89zm0 2.084v1.736H29.872v-1.736zm0 2.133v2.183H29.872v-2.183zm0 2.58v2.356H29.872v-2.357zm0 2.753v3.348H29.872v-3.348zM53.51 33.59l-5.977 23.068h11.93zm.1 2.132l.124.373h-.372l.05-.373zm.173.77l.1.446h-.67l.1-.447zm.15.868l.098.644h-.967l.1-.644zm.198 1.066l.148.868h-1.463l.149-.868zm.198 1.265l.248 1.067h-2.133l.273-1.067zm.347 1.464l.323 1.34h-2.902l.297-1.34zm.422 1.736l.347 1.687h-3.844l.446-1.687zm.447 2.084l.421 1.736H51.03l.447-1.736zm.52 2.133l.546 2.183h-6.25l.57-2.183zm.645 2.58l.62 2.356h-7.664l.595-2.357zm.72 2.753l.868 3.348h-9.65l.919-3.348zm7.516-29.667h-8.533l-1.687 6.202 7.218 27.682h11.832zm-.72.869l.57 2.034h-8.234l.52-2.034zm.67 2.43l.347 1.414h-9.128l.347-1.414zm.471 1.836l.298 1.067h-9.972l.273-1.067zm.397 1.463l.198.819h-9.996l-.223-.819zm.298 1.216l.149.62h-9.947l-.199-.62zm.248 1.017l.173.52h-10.02l-.1-.52zm.273.918l.099.421H56.66l-.1-.421zm.793 3.15l.124.422H57.48l-.05-.422zm.224.818l.148.447h-10.02l-.1-.447zm.248.869l.148.644H58l-.173-.644zm.248 1.066l.248.868h-9.997l-.248-.868zm.347 1.265l.273 1.067h-9.972l-.297-1.067zm.372 1.464l.347 1.34h-9.946l-.372-1.34zm.447 1.736l.47 1.687h-10.02l-.397-1.687zm.57 2.084l.447 1.736h-9.997l-.471-1.736zm.546 2.133l.57 2.183h-10.02l-.547-2.183zm.67 2.58l.595 2.356h-9.997l-.62-2.357zm.719 2.753l.893 3.348h-9.997l-.868-3.348zm7.714-29.667h-8.78l-1.787 6.202 7.516 27.682h12.18zm-.72.869l.571 2.034H70.85l.496-2.034zm.67 2.43l.397 1.414h-9.5l.422-1.414zm.497 1.836l.322 1.067H69.931l.298-1.067zm.421 1.463l.199.819H70.179l-.198-.819zm.298 1.216l.149.62H70.477l-.149-.62zm.298 1.017l.099.52H70.75l-.174-.52zm.248.918l.124.421H70.948l-.099-.421zm.818 3.15l.1.422H71.815l-.099-.422zm.199.818l.173.447H72.015l-.1-.447zm.272.869l.199.644H72.313l-.15-.644zm.298 1.066l.199.868h-10.32l-.247-.868zm.347 1.265l.273 1.067H73.081l-.297-1.067zm.372 1.464l.348 1.34h-10.32l-.346-1.34zm.497 1.736l.47 1.687H74.099l-.47-1.687zm.57 2.084l.446 1.736H74.644l-.446-1.736zm.546 2.133l.62 2.183H75.363l-.57-2.183zm.72 2.58l.594 2.356H76.132l-.67-2.357zm.718 2.753l.893 3.348H77.15l-.917-3.348zM115.274 22.774h-11.633l11.633 13.519zm-.843.869v2.034h-7.218l-1.737-2.034zm0 2.43v1.414h-5.656l-1.215-1.414zm0 1.836v1.067h-4.316l-.918-1.067zm0 1.463v.819h-3.3l-.669-.819zm0 1.216v.62h-2.406l-.546-.62zm0 1.017v.52h-1.637l-.397-.52zm0 .918v.421h-.918l-.422-.421zm-3.423-.397l-8.111 7.119 8.11 6.846zm-.844 3.547v.422h-2.455l.471-.422zm0 .818v.447h-3.472l.57-.447zm0 .869v.644h-4.638l.769-.644zm0 1.066v.868h-5.903l.868-.868zm0 1.265v1.067h-4.117l-1.315-1.067zm0 1.464v1.34h-2.133l-1.538-1.34zm0 1.736v1.364l-1.637-1.364zm-7.987-20.117H89.825v33.884h12.352zm-.868.869v2.034H90.693v-2.034zm0 2.43v1.414H90.693v-1.414zm0 1.836v1.067H90.693v-1.067zm0 1.463v.819H90.693v-.819zm0 1.216v.62H90.693v-.62zm0 1.017v.52H90.693v-.52zm0 .918v.421H90.693v-.421zm0 3.15v.422H90.693v-.422zm0 .818v.447H90.693v-.447zm0 .869v.644H90.693v-.644zm0 1.066v.868H90.693v-.868zm0 1.265v1.067H90.693V39.69zm0 1.464v1.34H90.693v-1.34zm0 1.736v1.687H90.693V42.89zm0 2.084v1.736H90.693v-1.736zm0 2.133v2.183H90.693v-2.183zm0 2.58v2.356H90.693v-2.357zm0 2.753v3.348H90.693v-3.348z"/></g></g></svg>